<?xml version="1.0" ?><svg contentScriptType="text/ecmascript" contentStyleType="text/css" enable-background="new 0 0 2048 2048" height="2048px" id="Layer_1" preserveAspectRatio="xMidYMid meet" version="1.1" viewBox="0.0 0 1664.0 2048" width="1664.0px" xml:space="preserve" xmlns="http://www.w3.org/2000/svg" xmlns:xlink="http://www.w3.org/1999/xlink" zoomAndPan="magnify"><path d="M640,1344c0,26.667-4.167,54-12.5,82s-22.667,53.333-43,76s-44.5,34-72.5,34s-52.167-11.333-72.5-34s-34.667-48-43-76  s-12.5-55.333-12.5-82s4.167-54,12.5-82s22.667-53.333,43-76s44.5-34,72.5-34s52.167,11.333,72.5,34s34.667,48,43,76  S640,1317.333,640,1344z M1280,1344c0,26.667-4.167,54-12.5,82s-22.667,53.333-43,76s-44.5,34-72.5,34s-52.167-11.333-72.5-34  s-34.667-48-43-76s-12.5-55.333-12.5-82s4.167-54,12.5-82s22.667-53.333,43-76s44.5-34,72.5-34s52.167,11.333,72.5,34  s34.667,48,43,76S1280,1317.333,1280,1344z M1440,1344c0-80-23-148-69-204s-108.333-84-187-84c-27.333,0-92.333,7-195,21  c-47.333,7.333-99.667,11-157,11s-109.667-3.667-157-11c-101.333-14-166.333-21-195-21c-78.667,0-141,28-187,84s-69,124-69,204  c0,58.667,10.667,109.833,32,153.5s48.333,78,81,103s73.333,45,122,60s95.333,24.833,140,29.5s94.333,7,149,7h168  c54.667,0,104.333-2.333,149-7c44.667-4.667,91.333-14.5,140-29.5s89.333-35,122-60s59.667-59.333,81-103S1440,1402.667,1440,1344z   M1664,1168c0,138-20.333,248.333-61,331c-25.333,51.333-60.5,95.667-105.5,133s-92,66-141,86s-105.667,35.833-170,47.5  s-121.5,19-171.5,22s-105.667,4.5-167,4.5c-52,0-99.333-1-142-3s-91.833-6.167-147.5-12.5s-106.5-16.333-152.5-30  s-91.667-30.833-137-51.5s-85.667-47.667-121-81s-64-71.667-86-115c-41.333-82-62-192.333-62-331c0-158,45.333-290,136-396  c-18-54.667-27-111.333-27-170c0-77.333,17-150,51-218c72,0,135.333,13.167,190,39.5S467.667,491,539,547c98-23.333,201-35,309-35  c98.667,0,192,10.667,280,32c70-54.667,132.333-95,187-121s117.667-39,189-39c34,68,51,140.667,51,218c0,58-9,114-27,168  C1618.667,876.667,1664,1009.333,1664,1168z"/></svg>