<?xml version="1.0" ?><!DOCTYPE svg  PUBLIC '-//W3C//DTD SVG 1.1//EN'  'http://www.w3.org/Graphics/SVG/1.1/DTD/svg11.dtd'><svg height="48px" id="Layer_1" style="enable-background:new 0 0 48 48;" version="1.1" viewBox="0 0 48 48" width="48px" xml:space="preserve" xmlns="http://www.w3.org/2000/svg" xmlns:xlink="http://www.w3.org/1999/xlink"><g><path d="M37.054,9.945c0.55,0,1,0.45,1,1v28.67c0,0.55-0.45,1-1,1h-25.3   c-0.55,0-1-0.45-1-1V6.995c0-0.55,0.45-1,1-1h21.21c0.55,0,1,0.45,1,1v1.95c0,0.55,0.45,1,1,1H37.054z" style="fill:none;stroke:#231F20;stroke-miterlimit:10;"/></g><rect height="6" style="fill:none;stroke:#231F20;stroke-miterlimit:10;" width="6" x="14.154" y="9.615"/><rect height="0.84" style="fill:#231F20;" width="9.958" x="22.123" y="9.102"/><rect height="0.84" style="fill:#231F20;" width="11.875" x="22.133" y="11.362"/><rect height="0.84" style="fill:#231F20;" width="11.875" x="22.133" y="13.331"/><rect height="0.938" style="fill:#231F20;" width="11.916" x="22.217" y="15.116"/><rect height="0.938" style="fill:#231F20;" width="21.75" x="13.633" y="20.949"/><rect height="0.938" style="fill:#231F20;" width="21.75" x="13.717" y="23.199"/><rect height="0.938" style="fill:#231F20;" width="21.75" x="13.717" y="25.448"/><rect height="0.938" style="fill:#231F20;" width="21.75" x="13.801" y="36.281"/><path d="M38.123,9.894c0.33,0.32,0.444,0.738,0.256,0.933l0,0c-0.188,0.194-0.609,0.092-0.939-0.228  l-3.925-3.807c-0.329-0.32-0.444-0.738-0.256-0.932l0,0c0.188-0.195,0.61-0.093,0.939,0.227L38.123,9.894z" style="fill:#231F20;"/></svg>